<?xml version="1.0" encoding="UTF-8"?>
<svg id="Layer_2" data-name="Layer 2" xmlns="http://www.w3.org/2000/svg" viewBox="0 0 51.08 65.2">
  <defs>
    <style>
      .cls-1 {
        fill: #023899;
      }

      .cls-2 {
        fill: #1b4dd8;
      }

      .cls-3 {
        fill: #fff;
      }

      .cls-4 {
        fill: #022768;
      }

      .cls-5 {
        fill: #78a7f9;
      }
    </style>
  </defs>
  <g id="Layer_1-2" data-name="Layer 1">
    <g>
      <path class="cls-3" d="M51.07.35s-.01-.06-.02-.09c0-.02-.01-.03-.02-.04-.02-.03-.04-.06-.06-.08,0-.01-.02-.02-.03-.03-.03-.03-.07-.06-.12-.08,0,0,0,0,0,0,0,0,0,0,0,0,0,0-.01,0-.02,0-.04-.01-.08-.02-.12-.02-.02,0-.03,0-.05,0-.03,0-.06.01-.09.02-.01,0-.03.01-.04.02-.03.02-.06.04-.09.06,0,0-.02.02-.03.02,0,0,0,0,0,0l-15.71,18.59s0,0,0,0h0s0,.01,0,.02c-.03.04-.05.07-.07.12l-3.48,10.69c-.07-.08-.18-.12-.29-.12h-10.88l-3.44-10.57s-.04-.08-.06-.11c0,0,0-.01-.01-.02h0s0,0,0,0L.71.14s0,0,0,0c0-.01-.02-.02-.03-.03-.03-.02-.05-.04-.08-.06-.01,0-.03-.01-.05-.02-.03-.01-.06-.02-.09-.02-.02,0-.03,0-.05,0-.04,0-.08,0-.12.02,0,0-.01,0-.02,0,0,0,0,0,0,0,0,0,0,0,0,0-.05.02-.08.04-.12.08-.01,0-.02.02-.03.03-.02.02-.04.05-.06.08,0,.01-.01.03-.02.04-.01.03-.02.06-.02.09,0,.02,0,.03,0,.05,0,0,0,.01,0,.02l.86,19.62c0,.06.02.11.04.16l6.73,13.29,3.34,8.44-6.2,10.52s0,.01,0,.02c-.02.04-.04.09-.05.14,0,.06,0,.12.02.18,0,.03.02.05.04.08.03.06.08.1.13.14l9.83,6.39,6.21,5.7c.07.07.17.11.27.11h8.46s.08-.01.12-.02c.04.01.07.02.11.02.09,0,.18-.03.26-.09l6.93-5.71,9.13-6.4s.09-.08.12-.13c0,0,0,0,0,0,.01-.02.02-.05.03-.08.02-.06.02-.12.02-.18,0-.04-.02-.09-.04-.13,0,0,0-.01-.01-.02l-6.2-10.52,3.34-8.44,6.73-13.29c.03-.05.04-.11.04-.16l.86-19.62s0-.01,0-.02c0-.02,0-.03,0-.05Z"/>
      <polygon class="cls-4" points="49.51 2.42 37.94 33.8 35.4 19.12 49.51 2.42"/>
      <path class="cls-1" d="M26.78,62.35l-.96-1v-1.47l4.83-2.98c.15-.09.23-.28.18-.45-.05-.17-.21-.29-.39-.29h-4.97s.02,0,.02-.01c0,0,0,0,0,0,0,0,.01,0,.02,0,0,0,0,0,.02-.01,0,0,0,0,.01,0l9.27-6.83,1.56,9.53-9.6,3.54Z"/>
      <path class="cls-5" d="M13.64,35.58l5.95-5.15,5,6.42-6.65,1.38s-.02.01-.04.02c-.01,0-.03,0-.04,0,0,0,0,0-.01,0,0,0,0,0-.01,0l-5.78,2.93,1.59-5.61Z"/>
      <polygon class="cls-4" points="25.41 59.19 21.53 56.97 29.02 56.97 25.41 59.19"/>
      <polygon class="cls-2" points="25.71 53.91 25.71 37.61 32.48 38.93 25.71 53.91"/>
      <polygon class="cls-1" points="32.91 39.96 34.55 48.48 26.32 54.55 32.91 39.96"/>
      <polygon class="cls-2" points="24.91 53.81 18.58 38.93 24.91 37.62 24.91 53.81"/>
      <polygon class="cls-1" points="24.34 54.54 16.4 48.48 18.16 39.98 24.34 54.54"/>
      <polygon class="cls-4" points="17.46 39.37 15.75 47.63 12.01 42.12 17.46 39.37"/>
      <path class="cls-1" d="M16.29,49.41l8.78,6.7s0,0,.01,0c.01,0,.03.02.04.02,0,0,.01,0,.02.01,0,0,0,0,0,0h-5.12c-.18,0-.34.12-.39.3-.05.18.03.36.19.45l5.2,2.98v1.47l-.88.92-8.74-3.48.89-9.4Z"/>
      <polygon class="cls-4" points="33.61 39.36 39.08 42.12 35.24 47.77 33.61 39.36"/>
      <path class="cls-5" d="M33.24,38.27s0,0,0,0,0,0,0,0c-.01,0-.02,0-.03,0-.02,0-.03-.02-.05-.02,0,0,0,0,0,0l-7.08-1.38,5.42-6.43,5.96,5.16,1.59,5.61-5.78-2.93Z"/>
      <polygon class="cls-1" points="34.85 20.68 37.21 34.31 31.9 29.72 34.85 20.68"/>
      <polygon class="cls-2" points="30.57 30.25 25.32 36.48 20.47 30.25 30.57 30.25"/>
      <polygon class="cls-1" points="13.88 34.31 16.24 20.68 19.18 29.72 13.88 34.31"/>
      <polygon class="cls-4" points="13.14 33.8 1.58 2.41 15.69 19.12 13.14 33.8"/>
      <path class="cls-2" d="M.92,2.97l11.68,31.7c-1.04-.4-2.91-1.12-4.32-1.67L1.66,19.91.92,2.97Z"/>
      <path class="cls-1" d="M8.71,34.04c.49.19,1.13.44,1.78.69,1.17.45,1.87.72,2.31.87l-1.45,5.11-2.64-6.67Z"/>
      <polygon class="cls-5" points="11.44 42.72 15.33 48.45 6.03 51.89 11.44 42.72"/>
      <polygon class="cls-2" points="15.49 49.25 14.63 58.37 6 52.76 15.49 49.25"/>
      <path class="cls-4" d="M29.73,64.4s-.04-.01-.07-.01h-8.3l-4.5-4.13,7.24,2.88c.15.06.33.02.44-.1l.89-.93.89.93c.08.08.19.12.29.12.04,0,.08-.01.12-.02.08.02.17.03.25,0l7.75-2.86-5.01,4.12Z"/>
      <polygon class="cls-2" points="37.12 58.37 35.64 49.27 45.11 52.77 37.12 58.37"/>
      <polygon class="cls-5" points="45.05 51.89 35.75 48.45 39.64 42.72 45.05 51.89"/>
      <path class="cls-1" d="M39.73,40.71l-1.45-5.11c.44-.15,1.14-.42,2.31-.87.64-.25,1.29-.5,1.78-.69l-2.64,6.67Z"/>
      <path class="cls-2" d="M42.8,33c-1.41.55-3.27,1.27-4.32,1.67L50.16,2.97l-.74,16.94-6.63,13.09Z"/>
    </g>
  </g>
</svg>